<svg width="22" height="22" viewBox="0 0 22 22" fill="none" xmlns="http://www.w3.org/2000/svg">
<path d="M11 15.6667V6.33334M6.91669 11.5833L11 15.6667L15.0834 11.5833" stroke="black" stroke-width="1.1" stroke-linecap="round" stroke-linejoin="round"/>
<path d="M1 1V0.5H0.5V1H1ZM21 21V21.5H21.5V21H21ZM1 1.5H16V0.5H1V1.5ZM20.5 6V21H21.5V6H20.5ZM21 20.5H6V21.5H21V20.5ZM1.5 16V1H0.5V16H1.5ZM6 20.5C3.51472 20.5 1.5 18.4853 1.5 16H0.5C0.5 19.0376 2.96243 21.5 6 21.5V20.5ZM16 1.5C18.4853 1.5 20.5 3.51472 20.5 6H21.5C21.5 2.96243 19.0376 0.5 16 0.5V1.5Z" fill="black"/>
</svg>
