<svg width="30" height="30" viewBox="0 0 30 30" fill="none" xmlns="http://www.w3.org/2000/svg">
<circle cx="15" cy="15" r="15" fill="#3B3A48"/>
<path fill-rule="evenodd" clip-rule="evenodd" d="M20.2105 14.6972C19.9848 15.6569 19.4663 16.4948 18.7559 17.1164L19.5226 20.2188C19.9082 21.7794 18.3005 22.9791 16.9496 22.3111L15.5055 21.5969C15.1875 21.4397 14.8125 21.4397 14.4945 21.5969L13.0504 22.3111C11.6995 22.9791 10.0918 21.7794 10.4775 20.2188L11.2441 17.1164C10.5337 16.4948 10.0152 15.6569 9.7895 14.6972C9.51463 13.5286 9.51463 12.3121 9.7895 11.1434C10.1929 9.42802 11.5319 8.10158 13.2304 7.70424C14.3944 7.43192 15.6056 7.43192 16.7697 7.70424C18.4682 8.10158 19.8071 9.42802 20.2105 11.1434C20.4854 12.3121 20.4854 13.5286 20.2105 14.6972ZM16.7697 18.1364C16.8227 18.124 16.8755 18.1106 16.9278 18.0964C17.2188 18.0174 17.4984 17.911 17.7634 17.7799L18.4365 20.5034C18.5653 21.0248 18.0102 21.5554 17.4347 21.2708L15.9907 20.5567C15.366 20.2477 14.634 20.2477 14.0093 20.5567L12.5653 21.2708C11.9898 21.5554 11.4347 21.0248 11.5635 20.5034L12.2366 17.7799C12.486 17.9032 12.7483 18.0048 13.0208 18.0821C13.09 18.1018 13.1599 18.1199 13.2304 18.1364C14.3944 18.4087 15.6056 18.4087 16.7697 18.1364Z" fill="url(#paint0_linear_24_7)"/>
<defs>
<linearGradient id="paint0_linear_24_7" x1="23.8876" y1="5.53398" x2="4.36826" y2="16.2682" gradientUnits="userSpaceOnUse">
<stop stop-color="#0EEDFF"/>
<stop offset="1" stop-color="#AB74F9"/>
</linearGradient>
</defs>
</svg>
